<?xml version="1.0" encoding="UTF-8"?>
<svg width="421px" height="100px" viewBox="0 0 421 100" version="1.1" xmlns="http://www.w3.org/2000/svg" xmlns:xlink="http://www.w3.org/1999/xlink">
    <!-- Generator: Sketch 49 (51002) - http://www.bohemiancoding.com/sketch -->
    <title>Logo</title>
    <desc>Created with Sketch.</desc>
    <defs></defs>
    <g id="Logo" stroke="none" stroke-width="1" fill="none" fill-rule="evenodd">
        <g>
            <g id="Y" transform="translate(321.000000, 0.000000)">
                <rect fill="#646464" x="0" y="0" width="100" height="100" rx="10"></rect>
                <path d="M43.18,58.2 L16.5258736,15.0362282 C15.6553468,13.6264945 16.0924604,11.7779781 17.5021941,10.9074513 C17.9759049,10.6149295 18.521672,10.46 19.0784223,10.46 L27.9376906,10.46 C28.9988848,10.46 29.9811233,11.0206321 30.5207915,11.934356 L50.44,45.66 L70.0325306,11.9524204 C70.5695646,11.028491 71.5575481,10.46 72.626216,10.46 L80.9321171,10.46 C82.5889713,10.46 83.9321171,11.8031458 83.9321171,13.46 C83.9321171,14.0150483 83.7781328,14.5592149 83.4872942,15.0319638 L56.93,58.2 L56.93,86 C56.93,87.6568542 55.5868542,89 53.93,89 L46.18,89 C44.5231458,89 43.18,87.6568542 43.18,86 L43.18,58.2 Z" fill="#000000"></path>
            </g>
            <g id="N" transform="translate(214.000000, 0.000000)">
                <rect fill="#898989" x="0" y="0" width="100" height="100" rx="10"></rect>
                <path d="M21.1,10.46 L30.9498603,10.46 C31.9882518,10.46 32.9528047,10.9969794 33.4998289,11.8796012 L68.48,68.32 L68.7,68.32 L68.7,13.46 C68.7,11.8031458 70.0431458,10.46 71.7,10.46 L78.79,10.46 C80.4468542,10.46 81.79,11.8031458 81.79,13.46 L81.79,86 C81.79,87.6568542 80.4468542,89 78.79,89 L68.9411683,89 C67.9022181,89 66.9372291,88.462447 66.3903729,87.5790638 L31.52,31.25 L31.19,31.25 L31.19,86 C31.19,87.6568542 29.8468542,89 28.19,89 L21.1,89 C19.4431458,89 18.1,87.6568542 18.1,86 L18.1,13.46 C18.1,11.8031458 19.4431458,10.46 21.1,10.46 Z" fill="#000000"></path>
            </g>
            <g id="O" transform="translate(107.000000, 0.000000)">
                <rect fill="#ADADAD" x="0" y="0" width="100" height="100" rx="10"></rect>
                <path d="M68.92,30.59 C63.86,25.53 57.7,22.89 50.22,22.89 C42.41,22.89 35.92,25.42 30.97,30.48 C26.02,35.54 23.49,41.92 23.49,49.95 C23.49,57.54 26.02,63.92 31.08,68.98 C36.14,74.04 42.3,76.57 49.89,76.57 C57.59,76.57 63.75,73.93 68.92,68.76 C74.09,63.59 76.62,57.32 76.62,49.51 C76.62,41.92 74.09,35.65 68.92,30.59 Z M78.38,77.89 C70.68,85.37 60.89,89 49.23,89 C38.12,89 28.66,85.26 21.29,77.89 C13.81,70.41 10.18,61.06 10.18,49.95 C10.18,38.62 13.92,28.94 21.4,21.46 C28.88,13.98 38.45,10.13 49.78,10.13 C61.22,10.13 70.79,13.98 78.38,21.46 C85.97,28.94 89.93,38.4 89.93,49.73 C89.93,60.95 86.08,70.41 78.38,77.89 Z" fill="#000000"></path>
                <path d="M55.861325,36.6935878 L72.1242908,61.0880365 C72.7369957,62.0070939 72.4886479,63.2488326 71.5695906,63.8615375 C71.2410555,64.0805609 70.8550401,64.1974369 70.4601902,64.1974369 L37.9342585,64.1974369 C36.829689,64.1974369 35.9342585,63.3020064 35.9342585,62.1974369 C35.9342585,61.8025869 36.0511346,61.4165716 36.270158,61.0880365 L52.5331238,36.6935878 C53.1458287,35.7745304 54.3875674,35.5261827 55.3066248,36.1388876 C55.5263293,36.2853573 55.7148552,36.4738832 55.861325,36.6935878 Z" id="Triangle" fill="#000000" transform="translate(54.197331, 50.000106) rotate(90.000000) translate(-54.197331, -50.000106) "></path>
            </g>
            <g id="P">
                <rect fill="#D4D4D4" x="0" y="0" width="100" height="100" rx="10"></rect>
                <path d="M24.675,10.46 L56.325,10.46 C61.8983612,10.46 66.4449824,11.2666586 69.965,12.88 C73.4850176,14.4933414 76.1983238,16.5099879 78.105,18.93 C80.0116762,21.3500121 81.3133299,23.9899857 82.01,26.85 C82.7066702,29.7100143 83.055,32.3499879 83.055,34.77 C83.055,37.1900121 82.7066702,39.8116525 82.01,42.635 C81.3133299,45.4583474 80.0116762,48.0799879 78.105,50.5 C76.1983238,52.9200121 73.4850176,54.9183254 69.965,56.495 C66.4449824,58.0716745 61.8983612,58.86 56.325,58.86 L35.425,58.86 L35.425,86 C35.425,87.6568542 34.0818542,89 32.425,89 L24.675,89 C23.0181458,89 21.675,87.6568542 21.675,86 L21.675,13.46 C21.675,11.8031458 23.0181458,10.46 24.675,10.46 Z M35.425,47.64 L55.555,47.64 C57.0950077,47.64 58.6716586,47.4200022 60.285,46.98 C61.8983414,46.5399978 63.3833265,45.825005 64.74,44.835 C66.0966734,43.8449951 67.1966625,42.5250082 68.04,40.875 C68.8833375,39.2249918 69.305,37.1533458 69.305,34.66 C69.305,32.0933205 68.938337,29.9666751 68.205,28.28 C67.471663,26.5933249 66.4816729,25.255005 65.235,24.265 C63.9883271,23.2749951 62.5583414,22.5966685 60.945,22.23 C59.3316586,21.8633315 57.6083425,21.68 55.775,21.68 L35.425,21.68 L35.425,47.64 Z" fill="#000000"></path>
            </g>
        </g>
    </g>
</svg>